<?xml version="1.0" encoding="UTF-8" standalone="no"?>
<svg
   xmlns:dc="http://purl.org/dc/elements/1.1/"
   xmlns:cc="http://creativecommons.org/ns#"
   xmlns:rdf="http://www.w3.org/1999/02/22-rdf-syntax-ns#"
   xmlns:svg="http://www.w3.org/2000/svg"
   xmlns="http://www.w3.org/2000/svg"
   xmlns:sodipodi="http://sodipodi.sourceforge.net/DTD/sodipodi-0.dtd"
   xmlns:inkscape="http://www.inkscape.org/namespaces/inkscape"
   version="1.1"
   width="45"
   height="45"
   id="svg2"
   inkscape:version="0.91 r13725"
   sodipodi:docname="pawnB12.svg">
  <metadata
     id="metadata10">
    <rdf:RDF>
      <cc:Work
         rdf:about="">
        <dc:format>image/svg+xml</dc:format>
        <dc:type
           rdf:resource="http://purl.org/dc/dcmitype/StillImage" />
        <dc:title></dc:title>
      </cc:Work>
    </rdf:RDF>
  </metadata>
  <defs
     id="defs8" />
  <sodipodi:namedview
     pagecolor="#ffffff"
     bordercolor="#666666"
     borderopacity="1"
     objecttolerance="10"
     gridtolerance="10"
     guidetolerance="10"
     inkscape:pageopacity="0"
     inkscape:pageshadow="2"
     inkscape:window-width="792"
     inkscape:window-height="480"
     id="namedview6"
     showgrid="false"
     inkscape:zoom="5.2444444"
     inkscape:cx="22.5"
     inkscape:cy="22.5"
     inkscape:window-x="0"
     inkscape:window-y="28"
     inkscape:window-maximized="0"
     inkscape:current-layer="svg2" />
  <path
     d="m 22,7.17 c -2.4752,0 -4.48,2.0048 -4.48,4.48 0,0.9968 0.3248,1.9152 0.8736,2.6656 -2.184,1.2544 -3.6736,3.5952 -3.6736,6.2944 0,2.2736 1.0528,4.3008 2.6992,5.6336 C 14.0592,27.4308 9.12,32.4596 9.12,41.33 l 25.76,0 c 0,-8.8704 -4.9392,-13.8992 -8.2992,-15.0864 1.6464,-1.3328 2.6992,-3.36 2.6992,-5.6336 0,-2.6992 -1.4896,-5.04 -3.6736,-6.2944 C 26.1552,13.5652 26.48,12.6468 26.48,11.65 26.48,9.1748 24.4752,7.17 22,7.17 Z"
     style="opacity:1;fill:#000000;fill-opacity:1;fill-rule:nonzero;stroke:#000000;stroke-width:1.67999995;stroke-linecap:round;stroke-linejoin:miter;stroke-miterlimit:4;stroke-dasharray:none;stroke-opacity:1"
     id="path4"
     inkscape:connector-curvature="0" />
</svg>
